<svg id="Layer_2" data-name="Layer 2" xmlns="http://www.w3.org/2000/svg" viewBox="0 0 36 36"><defs><style>.cls-1{fill:#808080;}</style></defs><title>Here One icons_expanded_2px</title><path class="cls-1" d="M22.29,17.63A6.8,6.8,0,0,0,25,12.2V9.79A6.8,6.8,0,0,0,18.21,3H17.8A6.8,6.8,0,0,0,11,9.79V12.2a6.74,6.74,0,0,0,2.71,5.42A15,15,0,0,0,3,32a1,1,0,0,0,2,0,13,13,0,1,1,26,0,1,1,0,0,0,2,0A15,15,0,0,0,22.29,17.63ZM18.21,17H17.8A4.81,4.81,0,0,1,13,12.2V9.79A4.81,4.81,0,0,1,17.8,5h.41A4.8,4.8,0,0,1,23,9.79V12.2A4.81,4.81,0,0,1,18.21,17Z"/></svg>