<?xml version="1.0" encoding="utf-8"?>
<!-- Generator: Adobe Illustrator 20.1.0, SVG Export Plug-In . SVG Version: 6.00 Build 0)  -->
<svg version="1.1" id="Layer_2" xmlns="http://www.w3.org/2000/svg" xmlns:xlink="http://www.w3.org/1999/xlink" x="0px" y="0px"
	 viewBox="0 0 36 36" style="enable-background:new 0 0 36 36;" xml:space="preserve">
<style type="text/css">
	.st0{fill:#808080;}
</style>
<title>Here One icons_expanded_2px</title>
<g>
	<path class="st0" d="M32.7,24.7c-0.4-0.4-1.1-0.4-1.6,0l-4.5,4.5V9c0-0.6-0.5-1.1-1.1-1.1c-0.6,0-1.1,0.5-1.1,1.1v20.2l-4.5-4.5
		c-0.4-0.4-1.2-0.4-1.6,0c-0.4,0.4-0.4,1.1,0,1.6l6.4,6.4c0.1,0.1,0.2,0.2,0.4,0.2c0,0,0,0,0,0c0,0,0,0,0,0c0.1,0,0.3,0.1,0.4,0.1
		c0.1,0,0.3,0,0.4-0.1c0,0,0,0,0,0c0,0,0,0,0,0c0.1-0.1,0.3-0.1,0.4-0.2l6.4-6.4C33.1,25.8,33.1,25.1,32.7,24.7z"/>
	<path class="st0" d="M17.8,9.7l-6.4-6.4c-0.1-0.1-0.2-0.2-0.4-0.2c0,0,0,0,0,0c0,0,0,0,0,0c-0.1,0-0.3-0.1-0.4-0.1c0,0,0,0,0,0l0,0
		c0,0,0,0,0,0l0,0c-0.1,0-0.3,0-0.4,0.1c0,0,0,0,0,0c0,0,0,0,0,0C10,3.2,9.9,3.2,9.8,3.4L3.3,9.7c-0.4,0.4-0.4,1.1,0,1.6
		c0.2,0.2,0.5,0.3,0.8,0.3c0.3,0,0.6-0.1,0.8-0.3l4.5-4.5V27c0,0.6,0.5,1.1,1.1,1.1c0.6,0,1.1-0.5,1.1-1.1V6.8l4.5,4.5
		c0.2,0.2,0.5,0.3,0.8,0.3c0.3,0,0.6-0.1,0.8-0.3C18.2,10.9,18.2,10.2,17.8,9.7z"/>
</g>
</svg>
