<svg id="Layer_2" data-name="Layer 2" xmlns="http://www.w3.org/2000/svg" viewBox="0 0 36 36"><defs><style>.cls-1{fill:#808080;}</style></defs><title>Here One icons_expanded_2px</title><path class="cls-1" d="M13,31a1,1,0,0,1-1-1V27A10.84,10.84,0,0,1,2,16.18v-.36A10.83,10.83,0,0,1,12.82,5H23.18A10.83,10.83,0,0,1,34,15.82v.36A10.83,10.83,0,0,1,23.18,27H19.3l-5.75,3.83A1,1,0,0,1,13,31ZM12.82,7A8.83,8.83,0,0,0,4,15.82v.36A8.83,8.83,0,0,0,12.82,25H13a1,1,0,0,1,1,1v2.13l4.45-3A1,1,0,0,1,19,25h4.18A8.83,8.83,0,0,0,32,16.18v-.36A8.83,8.83,0,0,0,23.18,7Z"/><path class="cls-1" d="M26,14H10a1,1,0,0,1,0-2H26a1,1,0,0,1,0,2Z"/><path class="cls-1" d="M26,20H10a1,1,0,0,1,0-2H26a1,1,0,0,1,0,2Z"/></svg>