<svg id="Layer_2" data-name="Layer 2" xmlns="http://www.w3.org/2000/svg" viewBox="0 0 36 36"><defs><style>.cls-1{fill:#808080;}</style></defs><title>Here One icons_expanded_2px</title><path class="cls-1" d="M21.3,31.21a11.81,11.81,0,0,1-8.41-3.48L8.27,23.11a11.89,11.89,0,0,1,0-16.82,1,1,0,0,1,1.41,0l6.16,6.16a1,1,0,0,1,0,1.41l-2.37,2.37,6.29,6.29,2.37-2.37a1,1,0,0,1,1.41,0l6.16,6.16a1,1,0,0,1,0,1.41A11.81,11.81,0,0,1,21.3,31.21ZM9,8.45a9.89,9.89,0,0,0,.67,13.25l4.62,4.62A9.89,9.89,0,0,0,27.55,27l-4.71-4.71-2.37,2.37a1,1,0,0,1-1.41,0l-7.7-7.7a1,1,0,0,1,0-1.41l2.37-2.37Z"/><path class="cls-1" d="M30.19,18.27h-.07a1,1,0,0,1-.93-1.07A9.75,9.75,0,0,0,18.8,6.81a1,1,0,0,1-1.06-.93,1,1,0,0,1,.93-1.07A11.75,11.75,0,0,1,31.18,17.34,1,1,0,0,1,30.19,18.27Z"/><path class="cls-1" d="M26.28,19.13h-.15A1,1,0,0,1,25.29,18,6.36,6.36,0,0,0,18,10.71a1,1,0,0,1-.3-2,8.37,8.37,0,0,1,9.55,9.55A1,1,0,0,1,26.28,19.13Z"/></svg>