<?xml version="1.0" encoding="utf-8"?>
<!-- Generator: Adobe Illustrator 20.1.0, SVG Export Plug-In . SVG Version: 6.00 Build 0)  -->
<svg version="1.1" id="Layer_2" xmlns="http://www.w3.org/2000/svg" xmlns:xlink="http://www.w3.org/1999/xlink" x="0px" y="0px"
	 viewBox="0 0 36 36" style="enable-background:new 0 0 36 36;" xml:space="preserve">
<style type="text/css">
	.st0{fill:#808080;}
</style>
<title>Here One icons_expanded_2px</title>
<g>
	<g>
		<path class="st0" d="M33.8,17.8L31,15.8c-0.8-0.6-1.8-0.9-2.8-0.9h-4L14.7,3.9c-0.2-0.2-0.5-0.4-0.8-0.4h-2.5
			c-0.3,0-0.6,0.1-0.8,0.4c-0.2,0.2-0.3,0.5-0.2,0.8L12.7,15H8l-2.2-3.6c-0.2-0.3-0.5-0.5-0.9-0.5H2.5c-0.5,0-1,0.5-1,1V20
			c0,0.6,0.5,1,1,1h10.2l-2.2,10.2c-0.1,0.3,0,0.6,0.2,0.8c0.2,0.2,0.5,0.4,0.8,0.4h2.5c0.3,0,0.6-0.1,0.8-0.4L24.2,21h8.5
			c0.8,0,1.5-0.5,1.7-1.2c0.1-0.2,0.1-0.4,0.1-0.5C34.5,18.7,34.2,18.1,33.8,17.8z M12.7,5.5h0.8l8.1,9.4h-6.8L12.7,5.5z M23.8,19
			c-0.3,0-0.6,0.1-0.8,0.4l-9.5,11.1h-0.8l2.2-10.2c0.1-0.3,0-0.6-0.2-0.8c-0.2-0.2-0.5-0.4-0.8-0.4H3.5v-6.2h0.9l2.2,3.6
			C6.7,16.8,7,17,7.4,17h20.8c0.6,0,1.2,0.2,1.6,0.5l2.2,1.6H23.8z"/>
	</g>
</g>
</svg>
